<mxfile host="app.diagrams.net" agent="Mozilla/5.0 (Windows NT 10.0; Win64; x64) AppleWebKit/537.36 (KHTML, like Gecko) Chrome/129.0.0.0 Safari/537.36" version="24.7.17">
  <diagram name="Сторінка-1" id="uGeXgI9Eb32bUDVhSBD6">
    <mxGraphModel dx="1313" dy="663" grid="0" gridSize="10" guides="1" tooltips="1" connect="1" arrows="1" fold="1" page="0" pageScale="1" pageWidth="827" pageHeight="1169" background="none" math="0" shadow="0">
      <root>
        <mxCell id="0" />
        <mxCell id="1" parent="0" />
        <mxCell id="WXnHczKJLZKgC88iBcaL-14" value="" style="endArrow=none;html=1;rounded=0;exitX=0.5;exitY=0;exitDx=0;exitDy=0;" edge="1" parent="1" source="WXnHczKJLZKgC88iBcaL-12" target="WXnHczKJLZKgC88iBcaL-1">
          <mxGeometry width="50" height="50" relative="1" as="geometry">
            <mxPoint x="520" y="560" as="sourcePoint" />
            <mxPoint x="570" y="510" as="targetPoint" />
          </mxGeometry>
        </mxCell>
        <mxCell id="WXnHczKJLZKgC88iBcaL-1" value="Початок" style="ellipse;whiteSpace=wrap;html=1;fillColor=#fff2cc;strokeColor=#d6b656;" vertex="1" parent="1">
          <mxGeometry x="354" y="40" width="120" height="50" as="geometry" />
        </mxCell>
        <mxCell id="WXnHczKJLZKgC88iBcaL-2" value="Увведення : P, r, n, t" style="shape=parallelogram;perimeter=parallelogramPerimeter;whiteSpace=wrap;html=1;fixedSize=1;fillColor=#ffe6cc;strokeColor=#d79b00;" vertex="1" parent="1">
          <mxGeometry x="309" y="130" width="209" height="50" as="geometry" />
        </mxCell>
        <mxCell id="WXnHczKJLZKgC88iBcaL-4" value="A=P*(1+r/n)&lt;sup&gt;n*t&lt;/sup&gt;" style="rounded=0;whiteSpace=wrap;html=1;fillColor=#ffe6cc;strokeColor=#d79b00;" vertex="1" parent="1">
          <mxGeometry x="309" y="210" width="209" height="60" as="geometry" />
        </mxCell>
        <mxCell id="WXnHczKJLZKgC88iBcaL-7" value="Виведення: P, A, suma" style="shape=parallelogram;perimeter=parallelogramPerimeter;whiteSpace=wrap;html=1;fixedSize=1;fillColor=#ffe6cc;strokeColor=#d79b00;" vertex="1" parent="1">
          <mxGeometry x="308" y="390" width="210.5" height="60" as="geometry" />
        </mxCell>
        <mxCell id="WXnHczKJLZKgC88iBcaL-8" value="suma=A-P" style="rounded=0;whiteSpace=wrap;html=1;fillColor=#ffe6cc;strokeColor=#d79b00;" vertex="1" parent="1">
          <mxGeometry x="310" y="300" width="207.75" height="60" as="geometry" />
        </mxCell>
        <mxCell id="WXnHczKJLZKgC88iBcaL-12" value="Початок" style="ellipse;whiteSpace=wrap;html=1;fillColor=#fff2cc;strokeColor=#d6b656;" vertex="1" parent="1">
          <mxGeometry x="354" y="480" width="120" height="50" as="geometry" />
        </mxCell>
      </root>
    </mxGraphModel>
  </diagram>
</mxfile>